<?xml version="1.0" encoding="UTF-8" standalone="no"?>
<!-- Created with Inkscape (http://www.inkscape.org/) -->
<!-- http://www.kelag.at/dateien/EFK_2005_1.pdf -->
<svg xmlns:svg="http://www.w3.org/2000/svg" xmlns="http://www.w3.org/2000/svg" version="1.0" width="250" height="105.413">
  <path d="M 6.36684,-9.705e-05 C 3.12182,-9.705e-05 2.5e-05,2.41683 2.5e-05,6.26321 L 2.5e-05,72.9102 L 2.5e-05,77.9413 C 2.5e-05,81.4492 2.87536,84.2062 6.26415,84.2062 C 9.61187,84.2062 12.5283,81.3982 12.5283,77.9413 L 12.4256,72.9102 L 12.0148,58.3282 L 25.3132,72.9102 L 32.0395,80.2514 C 36.2498,84.87 42.8324,85.6275 48.4187,81.6907 L 55.453,76.7616 C 61.2858,81.5757 67.8476,84.1553 74.6047,84.1553 C 80.1089,84.1553 87.359,81.7285 90.7273,79.328 L 99.6612,72.9102 L 108.955,66.2345 L 109.057,71.678 C 109.057,72.0838 109.068,72.5093 109.109,72.9102 C 109.705,79.2672 114.933,84.2062 121.586,84.2062 C 123.99,84.2062 126.76,83.3945 128.979,81.7926 L 138.529,74.9115 C 143.622,80.8675 151.264,84.1553 158.554,84.1553 C 168.002,84.1553 175.292,78.3011 175.294,78.3011 C 178.044,83.7166 187.102,86.237 193.264,81.7926 L 202.608,75.0659 C 208.255,81.1009 215.57,84.2062 222.735,84.2062 C 228.118,84.2062 233.665,81.9503 236.497,80.1495 C 236.497,82.9098 236.118,85.8263 234.494,87.8521 C 234.125,88.3253 233.724,88.7772 233.313,89.1863 C 230.643,91.7905 227.232,92.9653 222.839,92.8832 C 215.547,92.7468 210.989,91.0758 207.024,89.1863 C 206.531,88.9481 206.029,88.7131 205.536,88.4666 C 203.235,87.3182 200.771,87.7092 199.065,89.1863 C 198.49,89.7006 197.976,90.3331 197.628,91.0857 C 196.149,94.1286 196.859,97.7877 200.35,99.7643 C 207.662,103.89 217.91,105.459 222.633,105.411 C 229.925,105.339 238.426,102.587 243.377,97.556 C 245.472,95.4381 247.35,92.6449 248.562,89.1863 C 249.466,86.6149 250,83.6657 250,80.4058 L 249.949,72.9102 L 249.949,37.3793 C 249.949,33.8434 247.157,31.0125 243.684,31.0125 C 240.378,31.0125 238.17,33.4442 237.677,35.6327 C 235.397,34.0225 230.273,31.0125 222.735,31.0125 C 214.809,31.0125 207.527,34.7323 203.173,39.3822 C 197.956,44.9488 194.394,54.4604 196.857,63.8735 L 190.594,68.4428 C 188.662,69.8394 186.383,67.9499 186.384,65.7728 L 186.384,37.2758 C 186.384,33.988 183.787,31.0125 180.068,31.0125 C 176.557,31.0125 174.533,33.5707 173.958,35.7872 C 169.461,32.6555 164.358,31.0125 158.503,31.0125 C 147.886,31.0125 141.59,36.1963 138.016,40.6654 C 132.903,47.0946 130.499,54.8515 132.778,63.77 L 125.795,68.9045 C 123.968,70.2107 121.586,68.8322 121.586,66.1327 L 121.586,12.5282 C 121.586,10.1342 119.657,6.26321 115.322,6.26321 L 109.057,6.26321 C 105.299,6.26321 102.691,9.2667 102.691,12.5282 C 102.691,15.7075 105.607,18.7915 109.057,18.7915 L 108.903,50.4728 L 84.1551,68.3393 C 81.6905,70.0448 76.6278,71.6254 73.6292,71.6254 C 66.3382,71.6254 58.4206,65.6348 58.277,56.8379 C 58.1331,47.7552 64.5308,41.8714 71.8835,40.9217 C 75.6009,40.4403 79.8523,41.6726 81.9471,43.4372 L 70.6512,51.498 C 66.9954,54.1351 67.2008,57.8648 69.1108,60.4329 C 71.2468,63.3083 75.1901,63.7092 78.4557,61.3563 L 96.0672,48.8297 C 99.2711,46.5031 98.6652,44.5791 96.7346,41.3834 C 95.5845,39.466 91.9183,34.6584 85.9007,31.7305 C 74.6663,26.2591 62.0971,28.9028 54.3748,36.8141 C 47.6794,43.6541 43.4587,54.2501 48.6754,66.5944 L 44.5678,69.5206 C 41.5692,71.6155 39.5873,70.3734 37.1228,67.7757 L 23.7216,52.4231 L 36.8145,42.7701 C 39.916,40.5915 40.6348,36.5019 38.4576,33.5789 C 36.3216,30.7348 32.594,30.2665 29.5749,32.3466 L 12.5283,45.0293 L 12.5283,6.21227 C 12.5283,3.01654 9.67348,-9.705e-05 6.36684,-9.705e-05 z M 158.656,43.3353 C 166.502,43.3353 172.829,49.7038 172.829,57.5576 C 172.829,65.4147 166.502,71.7798 158.656,71.7798 C 150.789,71.7798 144.383,65.4147 144.383,57.5576 C 144.383,49.7038 150.789,43.3353 158.656,43.3353 z M 222.633,43.3353 C 230.481,43.3353 236.908,49.7038 236.908,57.5576 C 236.906,65.4147 230.481,71.7798 222.633,71.7798 C 214.788,71.7798 208.462,65.4147 208.462,57.5576 C 208.462,49.7038 214.788,43.3353 222.633,43.3353 z" style="fill:#008f4c;fill-opacity:1;fill-rule:evenodd;stroke:none"/>
</svg>