<svg width="218" height="32" viewBox="0 0 218 32" fill="none" xmlns="http://www.w3.org/2000/svg">
<g clip-path="url(#clip0_5046_4549)">
<path d="M27.9455 31.0086L17.838 30.9842L13.1101 25.5811L18.3688 19.6715L27.9455 31.0086ZM30.1889 0L4.16089 30.8759H0.0361055L0 7.15176L7.62212 7.18783V14.8354L19.9243 0H30.1889Z" fill="url(#paint0_linear_5046_4549)"/>
<path fill-rule="evenodd" clip-rule="evenodd" d="M62.6683 10.1489H59.7305L48.1494 22.4695V10.1489H45.8711V30.7931H48.1494V25.2473C52.9957 20.2212 57.842 15.195 62.6783 10.1489H62.6683ZM52.7958 21.2504L60.2002 30.7931H63.058L54.3746 19.6116L52.7958 21.2504ZM67.5746 10.1489V30.7931H69.8528V10.1489H67.5746ZM93.8345 27.5156L92.3357 26.0168C91.3764 26.956 90.3972 27.6955 89.3979 28.2151C88.3987 28.7347 87.2096 28.9945 85.8206 28.9945C84.7015 28.9945 83.6723 28.7747 82.723 28.335C81.7737 27.8953 80.9444 27.2858 80.2449 26.5264C79.5454 25.757 78.9958 24.8576 78.6061 23.8184C78.2164 22.7792 78.0166 21.6601 78.0166 20.461C78.0166 19.2619 78.2164 18.1428 78.6061 17.1136C78.9958 16.0843 79.5454 15.185 80.2449 14.4156C80.9444 13.6462 81.7737 13.0467 82.723 12.617C83.6723 12.1873 84.7115 11.9675 85.8206 11.9675C87.1996 11.9675 88.3887 12.2373 89.3779 12.7669C90.3672 13.2965 91.2965 13.9759 92.1558 14.8053L93.7146 13.0966C93.215 12.607 92.6954 12.1573 92.1558 11.7576C91.6162 11.3579 91.0367 11.0082 90.3972 10.7284C89.7676 10.4386 89.0782 10.2188 88.3387 10.0689C87.5993 9.90904 86.7699 9.8291 85.8506 9.8291C84.3718 9.8291 83.0028 10.1089 81.7537 10.6685C80.5047 11.228 79.4255 11.9974 78.5262 12.9667C77.6269 13.936 76.9174 15.0751 76.4078 16.3741C75.8982 17.6731 75.6484 19.0521 75.6484 20.5309C75.6484 22.0098 75.9082 23.4187 76.4078 24.7178C76.9174 26.0168 77.6269 27.1359 78.5262 28.0952C79.4255 29.0445 80.4947 29.8039 81.7238 30.3535C82.9528 30.903 84.3018 31.1828 85.7607 31.1828C86.68 31.1828 87.5193 31.0929 88.2688 30.913C89.0182 30.7332 89.7177 30.4934 90.3772 30.1736C91.0267 29.8638 91.6362 29.4841 92.2058 29.0345C92.7753 28.5948 93.3149 28.0952 93.8345 27.5456V27.5156ZM115.398 10.1489H112.46L100.879 22.4695V10.1489H98.6009V30.7931H100.879V25.2473C105.725 20.2212 110.572 15.195 115.408 10.1489H115.398ZM105.565 21.2604L112.92 30.7931H115.778L107.144 19.6316L105.565 21.2704V21.2604ZM121.573 15.2849C121.573 14.8153 121.673 14.3756 121.873 13.956C122.073 13.5463 122.363 13.1865 122.732 12.8868C123.112 12.587 123.562 12.3572 124.091 12.1773C124.621 11.9974 125.211 11.9075 125.86 11.9075C126.899 11.9075 127.888 12.0874 128.838 12.4371C129.787 12.7868 130.736 13.3564 131.676 14.1458L133.005 12.3472C131.965 11.5078 130.896 10.8783 129.787 10.4686C128.678 10.0489 127.389 9.84909 125.91 9.84909C124.951 9.84909 124.061 9.98898 123.262 10.2788C122.453 10.5685 121.753 10.9582 121.154 11.4679C120.554 11.9675 120.094 12.567 119.775 13.2565C119.445 13.946 119.285 14.7054 119.285 15.5348C119.285 16.3641 119.415 17.1435 119.685 17.773C119.955 18.4026 120.374 18.9621 120.924 19.4318C121.483 19.9014 122.183 20.3111 123.042 20.6409C123.902 20.9706 124.901 21.2704 126.06 21.5302C127.119 21.77 127.988 22.0098 128.678 22.2696C129.357 22.5294 129.897 22.8092 130.277 23.129C130.666 23.4387 130.936 23.7885 131.086 24.1782C131.236 24.5679 131.316 25.0075 131.316 25.4972C131.316 26.5564 130.906 27.4157 130.087 28.0652C129.267 28.7147 128.178 29.0345 126.819 29.0345C125.46 29.0345 124.181 28.7946 123.102 28.315C122.023 27.8354 120.964 27.1059 119.905 26.1167L118.496 27.8254C119.705 28.9445 120.984 29.7639 122.313 30.2935C123.652 30.8331 125.121 31.0929 126.739 31.0929C127.739 31.0929 128.658 30.953 129.507 30.6832C130.357 30.4034 131.076 30.0137 131.676 29.4941C132.275 28.9845 132.745 28.365 133.085 27.6355C133.424 26.9061 133.594 26.0967 133.594 25.2174C133.594 23.6286 133.065 22.3695 131.995 21.4702C130.926 20.5609 129.267 19.8515 127.019 19.3419C125.9 19.102 124.991 18.8522 124.281 18.5924C123.572 18.3226 123.012 18.0328 122.613 17.7031C122.213 17.3833 121.933 17.0236 121.773 16.6239C121.623 16.2342 121.543 15.7846 121.543 15.2949L121.573 15.2849ZM156.337 27.5156L154.838 26.0168C153.879 26.956 152.899 27.6955 151.9 28.2151C150.901 28.7347 149.712 28.9945 148.323 28.9945C147.204 28.9945 146.175 28.7747 145.225 28.335C144.276 27.8953 143.447 27.2858 142.747 26.5264C142.048 25.757 141.498 24.8576 141.108 23.8184C140.719 22.7792 140.519 21.6601 140.519 20.461C140.519 19.2619 140.719 18.1428 141.108 17.1136C141.498 16.0843 142.048 15.185 142.747 14.4156C143.447 13.6462 144.276 13.0467 145.225 12.617C146.175 12.1873 147.214 11.9675 148.323 11.9675C149.702 11.9675 150.891 12.2373 151.88 12.7669C152.869 13.2965 153.799 13.9759 154.658 14.8053L156.217 13.0966C155.717 12.607 155.198 12.1573 154.658 11.7576C154.118 11.3579 153.539 11.0082 152.899 10.7284C152.27 10.4386 151.58 10.2188 150.841 10.0689C150.102 9.90904 149.272 9.8291 148.353 9.8291C146.874 9.8291 145.505 10.1089 144.256 10.6685C143.007 11.228 141.928 11.9974 141.028 12.9667C140.129 13.936 139.42 15.0751 138.91 16.3741C138.4 17.6731 138.151 19.0521 138.151 20.5309C138.151 22.0098 138.41 23.4187 138.91 24.7178C139.42 26.0168 140.129 27.1359 141.028 28.0952C141.928 29.0445 142.997 29.8039 144.226 30.3535C145.455 30.903 146.804 31.1828 148.263 31.1828C149.182 31.1828 150.022 31.0929 150.771 30.913C151.52 30.7332 152.22 30.4934 152.879 30.1736C153.529 29.8638 154.138 29.4841 154.708 29.0345C155.278 28.5948 155.817 28.0952 156.337 27.5456V27.5156ZM170.696 10.009H168.567L159.374 30.7931H161.713C165.77 21.5502 164.85 23.6186 169.607 12.7469C174.643 24.3281 173.144 20.8507 177.441 30.7931H179.889L170.696 10.009ZM184.655 30.7931H198.285V28.6448H186.933V10.1489H184.655V30.7931ZM203.271 19.3219V30.7931H218V28.6747H205.549V21.4502H216.561V19.3319H203.271V19.3219Z" fill="#090C24"/>
<path fill-rule="evenodd" clip-rule="evenodd" d="M205.548 12.2768H208.346H217.858V10.1484H203.27V12.2768H205.548Z" fill="#15E6DF"/>
</g>
<defs>
<linearGradient id="paint0_linear_5046_4549" x1="15.0945" y1="0" x2="15.0945" y2="31.0086" gradientUnits="userSpaceOnUse">
<stop stop-color="#15E6DF"/>
<stop offset="1" stop-color="#19A5A0"/>
</linearGradient>
<clipPath id="clip0_5046_4549">
<rect width="218" height="32" fill="white"/>
</clipPath>
</defs>
</svg>
