<?xml version="1.0" encoding="UTF-8" standalone="no"?>
<!-- Created with Inkscape (http://www.inkscape.org/) -->
<svg
   xmlns:svg="http://www.w3.org/2000/svg"
   xmlns="http://www.w3.org/2000/svg"
   version="1.0"
   width="1624"
   height="440"
   id="svg10121">
  <defs
     id="defs10123">
    <clipPath
       id="clipPath2740">
      <path
         d="M 162.565,746.223 L 447.515,746.223 L 447.515,826.843 L 162.565,826.843 L 162.565,746.223 z"
         id="path2742" />
    </clipPath>
    <clipPath
       id="clipPath2732">
      <path
         d="M 162.565,826.843 L 447.515,826.843 L 447.515,746.223 L 162.565,746.223 L 162.565,826.843"
         id="path2734" />
    </clipPath>
    <clipPath
       id="clipPath2724">
      <path
         d="M 8.505,850.392 L 8.505,698.319 L 603.783,698.319 L 603.783,850.392 L 8.505,850.392"
         id="path2726" />
    </clipPath>
  </defs>
  <rect width="100%" height="100%" fill="white" />
  <g
     transform="translate(-13.254889,-18.614225)"
     id="layer1">
    <g
       transform="matrix(5.8162922,0,0,-5.8162922,-949.42493,4810.2952)"
       clip-path="url(#clipPath2724)"
       id="g2722">
      <g
         id="g2728">
        <g
           clip-path="url(#clipPath2732)"
           id="g2730">
          <g
             id="g2736">
            <g
               clip-path="url(#clipPath2740)"
               id="g2738">
              <g
                 transform="matrix(1.3899994,0,0,1.3899994,-107.09485,185.64844)"
                 id="g2744">
                <g
                   transform="translate(291.2637,457.918)"
                   id="g2746">
                  <path
                     d="M 0,0 L 10.207,0 L 10.207,-30.63 L 0,-30.63 L 0,0 z"
                     id="path2748"
                     style="fill:#ed1c24;fill-opacity:1;fill-rule:nonzero;stroke:none" />
                </g>
                <g
                   transform="translate(281.0522,447.7065)"
                   id="g2750">
                  <path
                     d="M 0,0 L 0,-10.207 L 30.629,-10.207 L 30.629,0 L 0,0 z"
                     id="path2752"
                     style="fill:#ed1c24;fill-opacity:1;fill-rule:nonzero;stroke:none" />
                </g>
                <g
                   transform="translate(198.1919,417.0342)"
                   id="g2754">
                  <path
                     d="M 0,0 C 0.49,0 0.89,-0.4 0.89,-0.902 C 0.89,-1.393 0.49,-1.793 0,-1.793 C -0.49,-1.793 -0.89,-1.393 -0.89,-0.902 C -0.89,-0.4 -0.49,0 0,0 z M 3.663,-10.279 C 0.774,-10.279 -0.89,-8.113 -0.89,-5.585 C -0.89,-3.018 0.877,-0.864 3.663,-0.864 C 6.526,-0.864 8.294,-3.057 8.294,-5.508 C 8.294,-7.829 6.488,-10.279 3.663,-10.279 z M 3.663,-2.76 C 2.05,-2.76 1.123,-4.102 1.123,-5.533 C 1.123,-6.861 1.999,-8.422 3.663,-8.422 C 5.211,-8.422 6.255,-6.875 6.255,-5.533 C 6.255,-4.23 5.262,-2.76 3.663,-2.76 z M 7.404,0 C 7.894,0 8.294,-0.4 8.294,-0.902 C 8.294,-1.393 7.894,-1.793 7.404,-1.793 C 6.914,-1.793 6.514,-1.393 6.514,-0.902 C 6.514,-0.4 6.914,0 7.404,0 z"
                     id="path2756"
                     style="fill:#231f20;fill-opacity:1;fill-rule:nonzero;stroke:none" />
                </g>
                <g
                   transform="translate(210.1094,406.7021)"
                   id="g2758">
                  <path
                     d="M 0,0 C -1.173,0 -2.089,0.504 -2.915,1.303 L -1.625,2.723 C -1.16,2.193 -0.657,1.691 0.091,1.691 C 0.71,1.691 1.238,2.129 1.238,2.774 C 1.238,3.096 1.109,3.342 0.877,3.547 C 0.645,3.754 0.336,3.896 0.052,4.025 C -1.186,4.617 -2.412,5.366 -2.412,6.914 C -2.412,8.553 -1.032,9.559 0.517,9.559 C 1.678,9.559 2.361,9.132 3.135,8.333 L 1.871,6.914 C 1.522,7.379 1.136,7.778 0.517,7.778 C 0.052,7.778 -0.348,7.456 -0.348,6.979 C -0.348,5.561 3.315,5.83 3.315,2.993 C 3.315,1.084 1.807,0 0,0 z"
                     id="path2760"
                     style="fill:#231f20;fill-opacity:1;fill-rule:nonzero;stroke:none" />
                </g>
                <g
                   transform="translate(218.0684,414.2607)"
                   id="g2762">
                  <path
                     d="M 0,0 L 0,-7.352 L -1.975,-7.352 L -1.975,-0.025 L -3.922,-0.025 L -3.922,1.754 L 1.947,1.754 L 1.947,0 L 0,0 z"
                     id="path2764"
                     style="fill:#231f20;fill-opacity:1;fill-rule:nonzero;stroke:none" />
                </g>
                <g
                   transform="translate(222.9297,414.249)"
                   id="g2766">
                  <path
                     d="M 0,0 L 0,-1.807 L 2.516,-1.807 L 2.516,-3.574 L 0,-3.574 L 0,-5.521 L 3.187,-5.521 L 3.187,-7.34 L -1.973,-7.34 L -1.973,1.766 L 3.199,1.766 L 3.199,0 L 0,0 z"
                     id="path2768"
                     style="fill:#231f20;fill-opacity:1;fill-rule:nonzero;stroke:none" />
                </g>
                <g
                   transform="translate(232.0488,406.9092)"
                   id="g2770">
                  <path
                     d="M 0,0 L -1.767,3.74 L -2.412,3.74 L -2.412,0 L -4.334,0 L -4.334,9.105 L -1.779,9.105 C -0.605,9.105 0.646,9.016 1.342,7.933 C 1.626,7.48 1.768,6.939 1.768,6.41 C 1.768,5.572 1.445,4.695 0.723,4.23 C 0.426,4.037 0.271,3.947 0,3.869 L 2.116,0 L 0,0 z M -1.729,7.52 L -2.398,7.52 L -2.398,5.121 L -1.689,5.121 C -1.146,5.121 -0.644,5.172 -0.335,5.688 C -0.219,5.881 -0.167,6.113 -0.167,6.332 C -0.167,7.262 -0.928,7.52 -1.729,7.52 z"
                     id="path2772"
                     style="fill:#231f20;fill-opacity:1;fill-rule:nonzero;stroke:none" />
                </g>
                <g
                   transform="translate(239.8271,406.9092)"
                   id="g2774">
                  <path
                     d="M 0,0 L -1.767,3.74 L -2.412,3.74 L -2.412,0 L -4.334,0 L -4.334,9.105 L -1.78,9.105 C -0.606,9.105 0.645,9.016 1.341,7.933 C 1.625,7.48 1.767,6.939 1.767,6.41 C 1.767,5.572 1.444,4.695 0.722,4.23 C 0.425,4.037 0.271,3.947 0,3.869 L 2.115,0 L 0,0 z M -1.728,7.52 L -2.399,7.52 L -2.399,5.121 L -1.69,5.121 C -1.147,5.121 -0.645,5.172 -0.335,5.688 C -0.22,5.881 -0.168,6.113 -0.168,6.332 C -0.168,7.262 -0.929,7.52 -1.728,7.52 z"
                     id="path2776"
                     style="fill:#231f20;fill-opacity:1;fill-rule:nonzero;stroke:none" />
                </g>
                <g
                   transform="translate(245.2441,414.249)"
                   id="g2778">
                  <path
                     d="M 0,0 L 0,-1.807 L 2.516,-1.807 L 2.516,-3.574 L 0,-3.574 L 0,-5.521 L 3.186,-5.521 L 3.186,-7.34 L -1.974,-7.34 L -1.974,1.766 L 3.199,1.766 L 3.199,0 L 0,0 z"
                     id="path2780"
                     style="fill:#231f20;fill-opacity:1;fill-rule:nonzero;stroke:none" />
                </g>
                <g
                   transform="translate(251.0224,406.9092)"
                   id="g2782">
                  <path
                     d="M 0,0 L 0,9.105"
                     id="path2784"
                     style="fill:none;stroke:#231f20;stroke-width:1.98599994;stroke-linecap:butt;stroke-linejoin:miter;stroke-miterlimit:10;stroke-dasharray:none;stroke-opacity:1" />
                </g>
                <g
                   transform="translate(259.4961,406.999)"
                   id="g2786">
                  <path
                     d="M 0,0 C -0.566,-0.18 -1.121,-0.283 -1.702,-0.283 C -4.346,-0.283 -6.152,1.639 -6.152,4.437 C -6.152,7.727 -3.985,9.223 -1.547,9.223 C -1.07,9.223 -0.594,9.171 -0.141,9.055 C 0.284,8.951 0.414,8.861 0.877,8.616 L 0.877,6.424 C 0.684,6.592 0.542,6.708 0.439,6.785 C -0.141,7.186 -0.812,7.43 -1.482,7.43 C -3.107,7.43 -4.152,6.178 -4.152,4.424 C -4.152,2.67 -3.146,1.51 -1.457,1.51 C -0.594,1.51 0.143,1.818 0.877,2.426 L 0.877,0.412 C 0.504,0.193 0.349,0.117 0,0 z"
                     id="path2788"
                     style="fill:#231f20;fill-opacity:1;fill-rule:nonzero;stroke:none" />
                </g>
                <g
                   transform="translate(267.0684,406.9092)"
                   id="g2790">
                  <path
                     d="M 0,0 L 0,3.753 L -3.381,3.753 L -3.381,0 L -5.366,0 L -5.366,9.105 L -3.381,9.105 L -3.381,5.52 L 0,5.52 L 0,9.105 L 1.986,9.105 L 1.986,0 L 0,0 z"
                     id="path2792"
                     style="fill:#231f20;fill-opacity:1;fill-rule:nonzero;stroke:none" />
                </g>
                <g
                   transform="translate(271.6338,406.9092)"
                   id="g2794">
                  <path
                     d="M 0,0 L 0,9.105"
                     id="path2796"
                     style="fill:none;stroke:#231f20;stroke-width:1.98599994;stroke-linecap:butt;stroke-linejoin:miter;stroke-miterlimit:10;stroke-dasharray:none;stroke-opacity:1" />
                </g>
                <g
                   transform="translate(276.5088,406.7021)"
                   id="g2798">
                  <path
                     d="M 0,0 C -1.173,0 -2.089,0.504 -2.915,1.303 L -1.625,2.723 C -1.161,2.193 -0.657,1.691 0.091,1.691 C 0.709,1.691 1.239,2.129 1.239,2.774 C 1.239,3.096 1.11,3.342 0.877,3.547 C 0.646,3.754 0.335,3.896 0.052,4.025 C -1.186,4.617 -2.412,5.366 -2.412,6.914 C -2.412,8.553 -1.031,9.559 0.516,9.559 C 1.677,9.559 2.36,9.132 3.135,8.333 L 1.87,6.914 C 1.523,7.379 1.136,7.778 0.516,7.778 C 0.052,7.778 -0.348,7.456 -0.348,6.979 C -0.348,5.561 3.314,5.83 3.314,2.993 C 3.314,1.084 1.806,0 0,0 z"
                     id="path2800"
                     style="fill:#231f20;fill-opacity:1;fill-rule:nonzero;stroke:none" />
                </g>
                <g
                   transform="translate(287.0859,406.999)"
                   id="g2802">
                  <path
                     d="M 0,0 C -0.568,-0.18 -1.122,-0.283 -1.703,-0.283 C -4.348,-0.283 -6.153,1.639 -6.153,4.437 C -6.153,7.727 -3.986,9.223 -1.549,9.223 C -1.07,9.223 -0.595,9.171 -0.143,9.055 C 0.283,8.951 0.412,8.861 0.877,8.616 L 0.877,6.424 C 0.684,6.592 0.541,6.708 0.438,6.785 C -0.143,7.186 -0.813,7.43 -1.483,7.43 C -3.109,7.43 -4.154,6.178 -4.154,4.424 C -4.154,2.67 -3.148,1.51 -1.458,1.51 C -0.595,1.51 0.143,1.818 0.877,2.426 L 0.877,0.412 C 0.502,0.193 0.348,0.117 0,0 z"
                     id="path2804"
                     style="fill:#231f20;fill-opacity:1;fill-rule:nonzero;stroke:none" />
                </g>
                <g
                   transform="translate(294.6572,406.9092)"
                   id="g2806">
                  <path
                     d="M 0,0 L 0,3.753 L -3.38,3.753 L -3.38,0 L -5.366,0 L -5.366,9.105 L -3.38,9.105 L -3.38,5.52 L 0,5.52 L 0,9.105 L 1.984,9.105 L 1.984,0 L 0,0 z"
                     id="path2808"
                     style="fill:#231f20;fill-opacity:1;fill-rule:nonzero;stroke:none" />
                </g>
                <g
                   transform="translate(300.2041,414.249)"
                   id="g2810">
                  <path
                     d="M 0,0 L 0,-1.807 L 2.514,-1.807 L 2.514,-3.574 L 0,-3.574 L 0,-5.521 L 3.186,-5.521 L 3.186,-7.34 L -1.975,-7.34 L -1.975,1.766 L 3.197,1.766 L 3.197,0 L 0,0 z"
                     id="path2812"
                     style="fill:#231f20;fill-opacity:1;fill-rule:nonzero;stroke:none" />
                </g>
                <g
                   transform="translate(307.2832,406.7021)"
                   id="g2814">
                  <path
                     d="M 0,0 C -1.173,0 -2.088,0.504 -2.914,1.303 L -1.624,2.723 C -1.159,2.193 -0.658,1.691 0.091,1.691 C 0.711,1.691 1.238,2.129 1.238,2.774 C 1.238,3.096 1.11,3.342 0.877,3.547 C 0.646,3.754 0.336,3.896 0.053,4.025 C -1.186,4.617 -2.412,5.366 -2.412,6.914 C -2.412,8.553 -1.032,9.559 0.517,9.559 C 1.677,9.559 2.36,9.132 3.135,8.333 L 1.871,6.914 C 1.522,7.379 1.136,7.778 0.517,7.778 C 0.053,7.778 -0.348,7.456 -0.348,6.979 C -0.348,5.561 3.316,5.83 3.316,2.993 C 3.316,1.084 1.808,0 0,0 z"
                     id="path2816"
                     style="fill:#231f20;fill-opacity:1;fill-rule:nonzero;stroke:none" />
                </g>
                <g
                   transform="translate(320.3379,406.9092)"
                   id="g2818">
                  <path
                     d="M 0,0 L -1.769,3.74 L -2.414,3.74 L -2.414,0 L -4.335,0 L -4.335,9.105 L -1.782,9.105 C -0.607,9.105 0.644,9.016 1.341,7.933 C 1.623,7.48 1.766,6.939 1.766,6.41 C 1.766,5.572 1.444,4.695 0.721,4.23 C 0.425,4.037 0.27,3.947 0,3.869 L 2.113,0 L 0,0 z M -1.728,7.52 L -2.4,7.52 L -2.4,5.121 L -1.691,5.121 C -1.15,5.121 -0.646,5.172 -0.336,5.688 C -0.22,5.881 -0.168,6.113 -0.168,6.332 C -0.168,7.262 -0.931,7.52 -1.728,7.52 z"
                     id="path2820"
                     style="fill:#231f20;fill-opacity:1;fill-rule:nonzero;stroke:none" />
                </g>
                <g
                   transform="translate(328.1025,406.7549)"
                   id="g2822">
                  <path
                     d="M 0,0 C -2.89,0 -4.581,2.166 -4.581,4.694 C -4.581,7.262 -2.878,9.415 -0.092,9.415 C 2.707,9.415 4.604,7.223 4.604,4.771 C 4.604,2.45 2.824,0 0,0 z M -0.028,7.519 C -1.64,7.519 -2.567,6.178 -2.567,4.746 C -2.567,3.418 -1.64,1.857 0.025,1.857 C 1.572,1.857 2.566,3.404 2.566,4.746 C 2.566,6.049 1.572,7.519 -0.028,7.519 z"
                     id="path2824"
                     style="fill:#231f20;fill-opacity:1;fill-rule:nonzero;stroke:none" />
                </g>
                <g
                   transform="translate(337.3114,414.2607)"
                   id="g2826">
                  <path
                     d="M 0,0 L 0,-7.352 L -1.975,-7.352 L -1.975,-0.025 L -3.922,-0.025 L -3.922,1.754 L 1.947,1.754 L 1.947,0 L 0,0 z"
                     id="path2828"
                     style="fill:#231f20;fill-opacity:1;fill-rule:nonzero;stroke:none" />
                </g>
                <g
                   transform="translate(342.1738,414.249)"
                   id="g2830">
                  <path
                     d="M 0,0 L 0,-1.807 L 2.515,-1.807 L 2.515,-3.574 L 0,-3.574 L 0,-5.521 L 3.185,-5.521 L 3.185,-7.34 L -1.975,-7.34 L -1.975,1.766 L 3.198,1.766 L 3.198,0 L 0,0 z"
                     id="path2832"
                     style="fill:#231f20;fill-opacity:1;fill-rule:nonzero;stroke:none" />
                </g>
                <g
                   transform="translate(349.2539,406.7021)"
                   id="g2834">
                  <path
                     d="M 0,0 C -1.174,0 -2.089,0.504 -2.914,1.303 L -1.624,2.723 C -1.16,2.193 -0.657,1.691 0.09,1.691 C 0.709,1.691 1.238,2.129 1.238,2.774 C 1.238,3.096 1.109,3.342 0.876,3.547 C 0.645,3.754 0.335,3.896 0.052,4.025 C -1.186,4.617 -2.412,5.366 -2.412,6.914 C -2.412,8.553 -1.031,9.559 0.517,9.559 C 1.677,9.559 2.359,9.132 3.134,8.333 L 1.87,6.914 C 1.522,7.379 1.136,7.778 0.517,7.778 C 0.052,7.778 -0.348,7.456 -0.348,6.979 C -0.348,5.561 3.315,5.83 3.315,2.993 C 3.315,1.084 1.807,0 0,0 z"
                     id="path2836"
                     style="fill:#231f20;fill-opacity:1;fill-rule:nonzero;stroke:none" />
                </g>
                <g
                   transform="translate(362.8096,406.9092)"
                   id="g2838">
                  <path
                     d="M 0,0 L -2.05,3.057 L -2.837,1.908 L -2.837,0 L -4.837,0 L -4.837,9.105 L -2.837,9.105 L -2.837,5.133 L -0.038,9.105 L 2.218,9.105 L -0.8,4.863 L 2.464,0 L 0,0 z"
                     id="path2840"
                     style="fill:#231f20;fill-opacity:1;fill-rule:nonzero;stroke:none" />
                </g>
                <g
                   transform="translate(370.4834,406.9092)"
                   id="g2842">
                  <path
                     d="M 0,0 L -1.766,3.74 L -2.412,3.74 L -2.412,0 L -4.333,0 L -4.333,9.105 L -1.779,9.105 C -0.606,9.105 0.647,9.016 1.342,7.933 C 1.626,7.48 1.769,6.939 1.769,6.41 C 1.769,5.572 1.446,4.695 0.724,4.23 C 0.427,4.037 0.272,3.947 0,3.869 L 2.115,0 L 0,0 z M -1.728,7.52 L -2.398,7.52 L -2.398,5.121 L -1.689,5.121 C -1.146,5.121 -0.644,5.172 -0.333,5.688 C -0.219,5.881 -0.168,6.113 -0.168,6.332 C -0.168,7.262 -0.929,7.52 -1.728,7.52 z"
                     id="path2844"
                     style="fill:#231f20;fill-opacity:1;fill-rule:nonzero;stroke:none" />
                </g>
                <g
                   transform="translate(375.9023,414.249)"
                   id="g2846">
                  <path
                     d="M 0,0 L 0,-1.807 L 2.514,-1.807 L 2.514,-3.574 L 0,-3.574 L 0,-5.521 L 3.186,-5.521 L 3.186,-7.34 L -1.975,-7.34 L -1.975,1.766 L 3.197,1.766 L 3.197,0 L 0,0 z"
                     id="path2848"
                     style="fill:#231f20;fill-opacity:1;fill-rule:nonzero;stroke:none" />
                </g>
                <g
                   transform="translate(386.9932,408.0693)"
                   id="g2850">
                  <path
                     d="M 0,0 C -0.695,-1.006 -1.663,-1.314 -2.85,-1.314 C -4.255,-1.314 -5.533,-0.786 -6.063,0.594 C -6.268,1.123 -6.308,1.69 -6.308,2.258 L -6.308,7.945 L -4.371,7.945 L -4.371,2.258 C -4.371,1.394 -3.959,0.375 -2.836,0.375 C -1.624,0.375 -1.289,1.381 -1.289,2.258 L -1.289,7.945 L 0.646,7.945 L 0.646,2.877 C 0.646,1.884 0.595,0.852 0,0 z"
                     id="path2852"
                     style="fill:#231f20;fill-opacity:1;fill-rule:nonzero;stroke:none" />
                </g>
                <g
                   transform="translate(395.8164,414.2744)"
                   id="g2854">
                  <path
                     d="M 0,0 L -3.806,-5.598 L 0,-5.598 L 0,-7.365 L -7.236,-7.365 L -2.218,-0.025 L -6.772,-0.025 L -6.772,1.74 L 0,1.74 L 0,0 z"
                     id="path2856"
                     style="fill:#231f20;fill-opacity:1;fill-rule:nonzero;stroke:none" />
                </g>
              </g>
            </g>
          </g>
        </g>
      </g>
    </g>
  </g>
</svg>
